<svg xmlns="http://www.w3.org/2000/svg" viewBox="0 0 44 30">
  <rect x="9" y="20" width="7" height="8" rx="3" fill="#8fa458" stroke="#5f7136" stroke-width="1.4"/>
  <rect x="26" y="20" width="7" height="8" rx="3" fill="#8fa458" stroke="#5f7136" stroke-width="1.4"/>
  <path d="M33 19 C36 18 38 15 39 13 L43 16 C41 19 38 21 34 22 Z" fill="#8fa458" stroke="#5f7136" stroke-width="1.4" stroke-linejoin="round"/>
  <ellipse cx="39.5" cy="12.5" rx="4" ry="3.4" fill="#8fa458" stroke="#5f7136" stroke-width="1.4"/>
  <circle cx="40.6" cy="11.6" r="0.9" fill="#1d1b12"/>
  <path d="M3 21 C3 9 11 3 20 3 C29 3 37 9 37 21 Z" fill="#e7b232" stroke="#7a5210" stroke-width="1.6" stroke-linejoin="round"/>
  <path d="M15 7 H25 L28 13 L25 19 H15 L12 13 Z M12 13 H5 M28 13 H35 M15 19 L13 21 M25 19 L27 21" fill="none" stroke="#7a5210" stroke-width="1.3" stroke-linejoin="round"/>
  <path d="M2 21 H38" stroke="#7a5210" stroke-width="2" stroke-linecap="round"/>
</svg>
